<svg width="194" height="40" viewBox="0 0 194 40" fill="none" xmlns="http://www.w3.org/2000/svg">
<path d="M9.29321 22.353C9.29321 22.2066 9.29321 22.1011 9.29321 21.9898C9.29321 19.4995 9.29321 17.0092 9.28149 14.5189C9.28149 14.2201 9.37525 14.1497 9.6565 14.1556C10.3421 14.1732 11.0335 14.1732 11.719 14.1556C11.9593 14.1556 12.0999 14.2376 12.2405 14.4251C13.5706 16.1888 14.9066 17.9526 16.2426 19.7163C16.3129 19.8042 16.3949 19.8862 16.5121 20.0092C17.0981 18.6147 18.2758 18.0639 19.6059 17.6186C19.6118 17.7709 19.6235 17.8705 19.6235 17.976C19.6235 20.4253 19.6235 22.8804 19.6235 25.3297C19.6235 25.6109 19.5356 25.693 19.2661 25.6871C18.6215 25.6695 17.9711 25.6754 17.3207 25.6871C17.1098 25.6871 16.975 25.6109 16.8461 25.4469C15.4808 23.6421 14.1097 21.8491 12.7386 20.0503C12.6448 19.9331 12.5452 19.8217 12.4456 19.7104C12.4105 19.7221 12.3753 19.7338 12.3402 19.7456C12.3402 19.9858 12.3519 20.2319 12.3343 20.4721C12.3226 20.5893 12.2816 20.7534 12.1995 20.8003C11.2972 21.3218 10.3772 21.8198 9.46314 22.3296C9.43384 22.3472 9.38697 22.3472 9.29321 22.3589V22.353Z" fill="#2B6BFE"/>
<path d="M9.59791 39.9374C10.4065 39.9315 10.805 40.078 11.596 39.9433C11.8538 39.9022 12.0472 39.7733 12.1761 39.621C12.2464 39.5683 12.3167 39.5097 12.3812 39.4393C13.2835 38.5428 17.268 34.5584 18.1704 33.656C19.6059 32.2263 21.0357 30.8024 22.4712 29.3727C23.7603 28.0836 25.0435 26.7828 26.3444 25.5113C27.3932 24.4859 28.2135 23.3374 28.6003 21.9077C29.2741 19.394 28.8581 17.0853 27.0768 15.1634C25.2193 13.1595 22.2134 12.3977 19.6235 13.2474C18.2817 13.6868 17.52 14.2083 16.7055 14.9701C16.6117 15.058 16.5707 15.2337 16.5707 15.3685C16.559 16.1244 16.559 16.4056 16.559 17.1615C16.559 17.5717 16.559 17.976 16.559 18.4565C16.7172 18.2924 16.9867 18.0756 17.0629 18.0229C18.0825 17.349 18.7622 16.9037 19.9165 16.4877C20.9595 16.1127 22.1958 16.0717 23.2505 16.517C25.9049 17.6303 26.3385 21.0347 24.4869 22.7046C23.7076 23.4019 22.9986 24.1753 22.2603 24.9195C19.9692 27.2106 17.6782 29.5016 15.393 31.7927C14.9769 32.2087 13.6117 33.5681 12.3577 34.8338C12.3577 31.4939 12.3577 30.4216 12.3577 29.3727C12.3577 29.2673 12.346 29.1618 12.3402 29.0153C12.2581 29.0505 12.223 29.0563 12.2054 29.0739C11.3851 29.7302 10.471 30.2341 9.48658 30.6032C9.39868 30.6384 9.30493 30.8083 9.30493 30.9196C9.29321 32.0915 9.30493 38.4725 9.28735 39.6444C9.28735 39.8964 9.38697 39.9433 9.60377 39.9374H9.59791Z" fill="#2B6BFE"/>
<path d="M19.3071 0.0630475C18.4985 0.068907 18.1001 -0.0775807 17.309 0.0571878C17.0512 0.0982043 16.8579 0.227113 16.729 0.37946C16.6586 0.432195 16.5883 0.490791 16.5239 0.561105C15.6215 1.45761 11.637 5.44207 10.7347 6.34443C9.29911 7.77415 7.86939 9.19801 6.43381 10.6277C5.14472 11.9168 3.86149 13.2176 2.56068 14.4891C1.51183 15.5146 0.691501 16.663 0.304774 18.0927C-0.369069 20.6065 0.0469557 22.9151 1.82824 24.837C3.68571 26.841 6.69163 27.6027 9.28153 26.7531C10.6234 26.3136 11.3851 25.7921 12.1996 25.0304C12.2933 24.9425 12.3343 24.7667 12.3343 24.6319C12.346 23.8761 12.346 23.5948 12.346 22.8389C12.346 22.4288 12.346 22.0245 12.346 21.544C12.1878 21.708 11.9183 21.9248 11.8421 21.9776C10.8226 22.6514 10.1429 23.0967 8.98855 23.5128C7.94556 23.8878 6.70921 23.9288 5.6545 23.4835C3.00014 22.3702 2.56654 18.9658 4.41814 17.2958C5.19746 16.5986 5.90646 15.8251 6.64475 15.0809C8.93582 12.7899 11.2269 10.4988 13.5121 8.20775C13.9281 7.79173 15.2934 6.43232 16.5473 5.16667C16.5473 8.50659 16.5473 9.57888 16.5473 10.6277C16.5473 10.7332 16.559 10.8387 16.5649 10.9852C16.6469 10.95 16.6821 10.9441 16.6997 10.9266C17.52 10.2703 18.4341 9.76638 19.4185 9.39723C19.5064 9.36207 19.6001 9.19215 19.6001 9.08082C19.6118 7.90892 19.6001 1.52792 19.6177 0.356022C19.6177 0.104064 19.5181 0.057188 19.3013 0.0630475H19.3071Z" fill="#2B6BFE"/>
<path d="M60.1012 7.7041H65.6267L64.3552 13.2296H69.0955C70.6249 13.2296 71.8319 13.8097 72.7108 14.9699C73.5898 16.1183 73.8652 17.4719 73.5312 19.0188L70.8182 30.3042H65.2751L68.0057 19.0188C68.0525 18.7317 67.9881 18.4797 67.824 18.2629C67.6482 18.0403 67.408 17.9289 67.1033 17.9289H63.1833L60.236 30.3042H54.7104L60.1012 7.7041Z" fill="#1D3860"/>
<path d="M73.1443 30.3042L77.3631 13.1945H82.8886L78.7343 30.3042H73.1443ZM78.7518 7.7041H84.2598L83.2226 11.7237H77.7147L78.7518 7.7041Z" fill="#1D3860"/>
<path d="M85.701 12.4269C86.5038 9.67289 88.3202 8.09669 91.1445 7.7041H98.6447L97.4728 12.5733H92.2812C91.9473 12.5733 91.6367 12.6905 91.3437 12.9249C91.0625 13.1593 90.8867 13.4523 90.8105 13.8097L89.9081 17.1086H93.6055L92.4688 21.9778H88.7187L86.662 30.2983H81.2361L85.7069 12.4151L85.701 12.4269Z" fill="#1D3860"/>
<path d="M97.086 24.515L101.223 7.7041H106.649C105.735 11.2843 105.26 13.1417 105.225 13.2648H109.227L108.02 18.2043H104.035C103.748 19.3997 103.508 20.3899 103.315 21.1751C103.127 21.9603 102.951 22.6751 102.793 23.3197C102.635 23.9584 102.541 24.3627 102.506 24.515C102.471 24.7963 102.541 25.0482 102.705 25.2709C102.875 25.4935 103.11 25.6049 103.408 25.6049H106.221L105.084 30.3101H101.434C99.9395 30.3101 98.7618 29.73 97.9004 28.5698C97.0274 27.4096 96.7578 26.0561 97.0801 24.515H97.086Z" fill="#1D3860"/>
<path d="M137.587 11.4542C138.571 8.96389 140.288 7.72168 142.743 7.72168H154.398C156.05 7.72168 157.392 8.30763 158.435 9.47953C159.472 10.6397 159.83 11.9874 159.507 13.5167L159.138 15.0402C158.857 16.1887 158.511 17.6067 158.101 19.2825C157.685 20.9641 157.31 22.5111 156.97 23.9291C156.63 25.3471 156.414 26.226 156.326 26.5717C155.447 29.062 153.73 30.3042 151.187 30.3042H139.62C137.927 30.3042 136.556 29.7182 135.519 28.5463C134.493 27.3862 134.13 26.0385 134.429 24.5091C135.021 22.054 135.513 20.0149 135.911 18.3918C136.31 16.7687 136.667 15.2922 136.989 13.9562C137.312 12.6202 137.517 11.7882 137.593 11.4542H137.587ZM150.191 25.1303C150.537 25.1303 150.771 24.9486 150.894 24.5795C151.386 22.5286 151.796 20.8235 152.136 19.47C152.47 18.1223 152.775 16.8859 153.039 15.7726C153.308 14.6593 153.472 13.9562 153.542 13.6808C153.578 13.4698 153.531 13.2823 153.408 13.13C153.285 12.9718 153.097 12.8956 152.839 12.8956H143.734C143.376 12.8956 143.142 13.0773 143.031 13.4464C143.019 13.505 142.89 14.0324 142.644 15.0285C142.398 16.0246 142.111 17.2024 141.782 18.55C141.454 19.8977 141.155 21.1341 140.886 22.2474C140.616 23.3665 140.446 24.0638 140.364 24.3392C140.329 24.5502 140.388 24.7377 140.534 24.89C140.693 25.0482 140.874 25.1244 141.085 25.1244H150.191V25.1303Z" fill="#2B6BFE"/>
<path d="M168.173 7.72168L168.812 23.2904L174.138 12.8605L173.822 7.72168H179.178L180.215 22.8568L187.064 7.72168H193.779L182.898 30.3042H175.164L174.748 23.0853L171.215 30.3042H163.515C163.515 30.3042 163.316 27.1108 163.216 25.8158L162.144 7.71582H168.191L168.173 7.72168Z" fill="#2B6BFE"/>
<path d="M130.655 7.72168L127.977 19.4407L126.864 23.8822L119.663 7.72168H114.307L111.624 19.4407L108.917 30.3042H114.202L117.882 15.0929L125.265 30.3042H130.556L136.011 7.72168H130.655Z" fill="#2B6BFE"/>
<path d="M54.9213 17.6879L56.433 13.2991H47.1574C43.1847 13.0648 40.7061 14.5648 39.7217 17.8051C39.376 19.6684 39.6573 21.1392 40.5596 22.2056C41.4503 23.2662 42.7452 23.8111 44.4445 23.8462H46.9055C48.0012 23.7818 48.5344 24.1041 48.511 24.8189C48.3235 25.4752 47.761 25.7682 46.8352 25.692H40.3956L40.7061 24.9947L38.2803 24.9771L38.1162 25.692L36.9795 30.3151H47.011C50.8606 30.4382 53.1283 28.8503 53.808 25.5455C54.1185 23.7056 53.9427 22.2349 53.2748 21.1392C52.6068 20.0317 51.2357 19.4458 49.1731 19.3813L46.9817 19.4458C46.3898 19.4809 45.9269 19.4282 45.593 19.2934C45.259 19.1586 45.1125 18.8891 45.1594 18.4731C45.259 17.9457 45.6516 17.7055 46.3313 17.7348H52.6478L52.3431 18.4848H54.6283L54.9154 17.7348L54.9271 17.6938V17.6879H54.9213Z" fill="#1D3860"/>
</svg>
