<?xml version="1.0" standalone="yes"?>
<svg xmlns="http://www.w3.org/2000/svg" width="194" height="194">
<path style="fill:#fbfefe; stroke:none;" d="M0 0L0 194L194 194L194 0L0 0z"/>
<path style="fill:#aec6e0; stroke:none;" d="M53.6667 21.3333L54.3333 21.6667L53.6667 21.3333z"/>
<path style="fill:#7d9ac6; stroke:none;" d="M51 22L51 23L137 22L111 21L51 22z"/>
<path style="fill:#aec6e0; stroke:none;" d="M137 21L137 22L140 22L137 21M44 24L44 25L51 23L44 24z"/>
<path style="fill:#385a9b; stroke:none;" d="M67 169L68.6698 115L56.1883 91L59 44L58 44C54.1512 57.021 51.7173 83.7677 55.3194 97C57.1589 103.757 63.8763 106.881 66.2616 113.039C68.1617 117.945 66.6479 123.975 66.1698 129C65.2293 138.883 69.6114 155.172 64.0116 163.852C60.5117 169.277 50.4739 165.654 46 163.189C32.2544 155.614 25.7095 143.392 24.1705 128C22.9916 116.209 24 103.849 24 92C24 72.9695 21.8973 53.8408 33.0957 37.4398C38.1072 30.1001 48.397 24.931 57 23.4684C62.9801 22.4517 69.0309 24.2602 75 23.6998C89.97 22.2945 105.041 22.9844 119.999 23.9074C132.789 24.6966 142.881 23.6887 153.907 31.9884C175.3 48.0921 168 88.6687 168 112C168 120.836 169.146 131.6 166.081 140C162.016 151.141 147.579 170.424 133.056 166.084C124.667 163.577 128.98 142.808 129.679 136.424C132.174 113.653 131.959 89.8801 132.961 67C133.234 60.7605 134.834 47.7787 129 44C133.083 55.2039 130 67.3842 130 79C130 109.036 127 138.934 127 169C132.377 168.996 137.858 168.816 143 167.049C177.448 155.214 169 113.599 169 85C169 69.5814 172.179 51.2487 162.699 38C150.744 21.2928 133.485 22 115 22C97.0042 22 78.9944 21.7898 61 22.0039C23.1444 22.4542 23 57.8333 23 86C23 113.87 14.8177 157.214 50 167.37C55.4678 168.948 61.3614 168.999 67 169z"/>
<path style="fill:#7d9ac6; stroke:none;" d="M138 22L138 23L144 24L138 22z"/>
<path style="fill:#aec6e0; stroke:none;" d="M142.667 22.3333L143.333 22.6667L142.667 22.3333z"/>
<path style="fill:#7d9ac6; stroke:none;" d="M48.6667 23.3333L49.3333 23.6667L48.6667 23.3333z"/>
<path style="fill:#2b57c1; stroke:none;" d="M68 40L69 40L73 44C76.4976 40.6788 84.8546 40.5765 86.581 46.0239C90.3978 58.0672 89.634 73.4295 90.8302 86C91.9711 97.988 83.9694 101.968 79.9383 111.91C75.6038 122.601 80 138.772 80 150C80 154.039 78.7012 161.018 81.179 164.486C84.602 169.277 104.881 168.512 109.775 166.258C118.561 162.211 111.468 144.318 109.498 138C102.92 116.898 102.635 85.9486 110.218 65.0008C112.671 58.225 118.255 44.1809 126.981 44.3372C136.369 44.5053 132.72 67.2202 132.17 73C130.054 95.2332 130.357 117.857 129.095 140.17C128.74 146.436 125.63 159.315 129.869 164.566C135.479 171.515 151.261 161.511 155.896 157.482C167.594 147.316 168 132.162 168 118C168 98.6747 168.614 79.2626 167.145 60C166.329 49.2979 163.839 39.0869 154.816 31.9884C144.189 23.6296 133.584 24.3346 121 23.875C105.274 23.3006 89.7558 22.8398 74 23.625C66.0384 24.0218 58.8745 22.2219 51 24.7461C17.2673 35.5594 24 76.2303 24 104C24 117.162 23.1079 130.291 27.2168 143C30.4717 153.068 50.069 174.179 62.686 165.971C69.7815 161.356 65.7163 139.378 66.0394 132C66.311 125.796 68.6666 118.118 66.2616 112.09C63.827 105.988 57.1394 102.829 55.3441 96.0394C52.9641 87.0386 55.8548 76.1992 55.9892 66.9853C56.078 60.8972 55.0642 49.1814 58.8935 44.1867C61.27 41.0871 65.2237 42.2992 68 40z"/>
<path style="fill:#aec6e0; stroke:none;" d="M144 23L144 24L152 27L152 26L144 23z"/>
<path style="fill:#7d9ac6; stroke:none;" d="M46 24L47 25L46 24M146 24L147 25L146 24z"/>
<path style="fill:#aec6e0; stroke:none;" d="M42 25L43 26L42 25z"/>
<path style="fill:#7d9ac6; stroke:none;" d="M43 25L44 26L43 25M148 25L149 26L148 25z"/>
<path style="fill:#aec6e0; stroke:none;" d="M40 26L33 33L41 27L40 26z"/>
<path style="fill:#7d9ac6; stroke:none;" d="M41.6667 26.3333L42.3333 26.6667L41.6667 26.3333M150 26L151 27L150 26M40 27L41 28L40 27M151 27L151 28L154 29L151 27z"/>
<path style="fill:#aec6e0; stroke:none;" d="M153 27L154 28L153 27z"/>
<path style="fill:#7d9ac6; stroke:none;" d="M38 28L39 29L38 28z"/>
<path style="fill:#aec6e0; stroke:none;" d="M154 28L155 29L154 28z"/>
<path style="fill:#7d9ac6; stroke:none;" d="M37 29L38 30L37 29z"/>
<path style="fill:#aec6e0; stroke:none;" d="M155 29L156 30L155 29z"/>
<path style="fill:#7d9ac6; stroke:none;" d="M36 30L37 31L36 30M156 30L164 39L156 30z"/>
<path style="fill:#aec6e0; stroke:none;" d="M157 30L158 31L157 30z"/>
<path style="fill:#7d9ac6; stroke:none;" d="M35 31L36 32L35 31z"/>
<path style="fill:#aec6e0; stroke:none;" d="M158 31L159 32L158 31z"/>
<path style="fill:#7d9ac6; stroke:none;" d="M34 32L35 33L34 32z"/>
<path style="fill:#aec6e0; stroke:none;" d="M159 32L160 33L159 32M32 33L33 34L32 33M160 33L161 34L160 33M31 34L29 37L31 34M161 34L162 35L161 34z"/>
<path style="fill:#7d9ac6; stroke:none;" d="M31 35L32 36L31 35M30 36L31 37L30 36z"/>
<path style="fill:#aec6e0; stroke:none;" d="M162 36L163 37L162 36z"/>
<path style="fill:#7d9ac6; stroke:none;" d="M29 37L30 38L29 37z"/>
<path style="fill:#aec6e0; stroke:none;" d="M163 37L164 38L163 37M28 38L26 42L27 42L28 38z"/>
<path style="fill:#7d9ac6; stroke:none;" d="M28 39L29 40L28 39z"/>
<path style="fill:#aec6e0; stroke:none;" d="M164 39L166 44L167 44L164 39z"/>
<path style="fill:#385a9b; stroke:none;" d="M68 40L62 41C63.4876 49.0128 63.9869 57.8495 64 66C64.0071 70.3958 62.9589 75.3801 67 78L68 41L69 41L72 78L73 78L76 41L73 44L68 40z"/>
<path style="fill:#7d9ac6; stroke:none;" d="M164 40L165 41L164 40M27 41L28 42L27 41z"/>
<path style="fill:#385a9b; stroke:none;" d="M60 41L59 43L60 41z"/>
<path style="fill:#7d9ac6; stroke:none;" d="M61 41L59 52L60 52L61 41M67 42L67 43L70 43L67 42M75 42L75 43C78.2488 43 77 47.2853 77 50L78 50L77 41L75 42z"/>
<path style="fill:#385a9b; stroke:none;" d="M77 41L78 42L77 41M82 41L78 42L79 78L81 78L82 41z"/>
<path style="fill:#7d9ac6; stroke:none;" d="M83 41L82 52L83 52C83 47.9768 81.8105 42.2026 85 43L83 41z"/>
<path style="fill:#385a9b; stroke:none;" d="M84 41L85 42L84 41z"/>
<path style="fill:#7d9ac6; stroke:none;" d="M26 42L25 46L26 46L26 42z"/>
<path style="fill:#aec6e0; stroke:none;" d="M61 42L60 44L62 44L61 42M68 42L69 43L68 42M76 42L75 48L76 48L76 42M83 42L84 47L85 47L83 42z"/>
<path style="fill:#385a9b; stroke:none;" d="M85 42L88.8951 92L77.4722 114L79 169L114 169C115.903 153.942 111.335 144.436 109.134 130C106.958 115.722 107.612 102.287 107.985 88C108.383 72.7597 112.874 54.2728 126 45L126 44C117.419 46.2589 113.069 56.1942 110.218 64.0039C103.009 83.7554 103.017 112.701 107.804 133C109.789 141.416 117.282 155.411 111.872 163.772C108.35 169.215 84.7548 169.393 81.179 163.721C78.9201 160.138 80 154.045 80 150C80 138.658 76.637 125.056 79.804 114C81.742 107.235 88.526 102.93 90.4907 96C93.6915 84.7098 89.0163 68.5781 88.0856 57C87.687 52.0406 87.8683 46.1928 85 42z"/>
<path style="fill:#7d9ac6; stroke:none;" d="M165 42L166 43L165 42z"/>
<path style="fill:#aec6e0; stroke:none;" d="M25 43L26 44L25 43z"/>
<path style="fill:#7d9ac6; stroke:none;" d="M62 43L62 55L63 55L62 43z"/>
<path style="fill:#2b57c1; stroke:none;" d="M65 43L66 44L65 43z"/>
<path style="fill:#aec6e0; stroke:none;" d="M67 43L67 79L68 79C68 68.6131 71.0114 52.5596 67 43M69 43L69 54L70 54L69 43z"/>
<path style="fill:#7d9ac6; stroke:none;" d="M117 54L118 54C121.265 49.7268 124.285 45.7925 130 46C124.476 42.2447 119.37 49.435 117 54M166 44L167 45L166 44z"/>
<path style="fill:#aec6e0; stroke:none;" d="M24.3333 45.6667L24.6667 46.3333L24.3333 45.6667M126 45L126 46L129 46L126 45M167 45L168 49L169 49L167 45M124 46L125 47L124 46M129.333 46.6667L129.667 47.3333L129.333 46.6667z"/>
<path style="fill:#7d9ac6; stroke:none;" d="M167 46L168 47L167 46M24 47L25 48L24 47M85 47L85 54L86 54L85 47z"/>
<path style="fill:#aec6e0; stroke:none;" d="M123 47L124 48L123 47z"/>
<path style="fill:#7d9ac6; stroke:none;" d="M130.333 47.6667L130.667 48.3333L130.333 47.6667z"/>
<path style="fill:#aec6e0; stroke:none;" d="M23 48L22 56L23 56L23 48M122 48L123 49L122 48M121 49L122 50L121 49M130 49L130 58L131 58L130 49z"/>
<path style="fill:#7d9ac6; stroke:none;" d="M168.333 49.6667L168.667 50.3333L168.333 49.6667M70 50L70 58L71 58L70 50z"/>
<path style="fill:#aec6e0; stroke:none;" d="M77 50L77 69L78 69L77 50M120 50L121 51L120 50M169 50L169 54L170 54L169 50z"/>
<path style="fill:#7d9ac6; stroke:none;" d="M23 51L24 52L23 51z"/>
<path style="fill:#aec6e0; stroke:none;" d="M119 51L120 52L119 51M59 52L59 60L60 60L59 52M82 52L82 66L83 66L82 52z"/>
<path style="fill:#7d9ac6; stroke:none;" d="M74 53L74 64L75 64L74 53z"/>
<path style="fill:#aec6e0; stroke:none;" d="M118 53L119 54L118 53z"/>
<path style="fill:#7d9ac6; stroke:none;" d="M58 54L58 63L59 63L58 54z"/>
<path style="fill:#aec6e0; stroke:none;" d="M85 54L85 60L86 60L85 54M117 54L116 57L117 54z"/>
<path style="fill:#7d9ac6; stroke:none;" d="M169 54L169 136L170 136L170 79L169 54z"/>
<path style="fill:#aec6e0; stroke:none;" d="M62 55L62 66L63 66L62 55z"/>
<path style="fill:#7d9ac6; stroke:none;" d="M78 55L78 70L79 70L78 55M81 55L81 73L82 73L81 55M86 55L86 65L87 65L86 55M116 55L117 56L116 55z"/>
<path style="fill:#aec6e0; stroke:none;" d="M170 55L170 136L171 136L171 80L170 55z"/>
<path style="fill:#7d9ac6; stroke:none;" d="M22 56L22 135L23 135L23 81L22 56z"/>
<path style="fill:#aec6e0; stroke:none;" d="M21 57L21 133L22 133L22 81L21 57z"/>
<path style="fill:#7d9ac6; stroke:none;" d="M63 57L63 74L64 74L63 57M115 57L116 58L115 57z"/>
<path style="fill:#aec6e0; stroke:none;" d="M70 58L70 66L71 66L70 58M115 58L112 67L113 67L115 58z"/>
<path style="fill:#7d9ac6; stroke:none;" d="M130 58L130 68L131 68L130 58M114 59L115 60L114 59z"/>
<path style="fill:#aec6e0; stroke:none;" d="M129 60L129 81L130 81L129 60z"/>
<path style="fill:#7d9ac6; stroke:none;" d="M113 61L114 62L113 61z"/>
<path style="fill:#aec6e0; stroke:none;" d="M58 63L57 87L58 87L58 63z"/>
<path style="fill:#7d9ac6; stroke:none;" d="M71 64C71 68.9125 69.436 76.0412 74 79L74 71L73 71L73 78L72 78L71 64z"/>
<path style="fill:#aec6e0; stroke:none;" d="M74 64L74 76L75 76L74 64z"/>
<path style="fill:#7d9ac6; stroke:none;" d="M112 64L113 65L112 64z"/>
<path style="fill:#aec6e0; stroke:none;" d="M86 65L86 72L87 72L86 65z"/>
<path style="fill:#7d9ac6; stroke:none;" d="M87 66L87 73L88 73L87 66M111 67L112 68L111 67M57 68L57 75L58 75L57 68z"/>
<path style="fill:#aec6e0; stroke:none;" d="M111.333 68.6667L111.667 69.3333L111.333 68.6667z"/>
<path style="fill:#7d9ac6; stroke:none;" d="M110 69L109 75L110 75L110 69z"/>
<path style="fill:#aec6e0; stroke:none;" d="M78 70L78 79L79 79L78 70M110.333 72.6667L110.667 73.3333L110.333 72.6667M81 73L81 79L82 79L81 73M87 73L87 82L88 82L87 73M63 74L65 79L63 74M109 75L108 98L109 98L109 75z"/>
<path style="fill:#7d9ac6; stroke:none;" d="M64 77L65 78L64 77M65.6667 78.3333L66.3333 78.6667L65.6667 78.3333z"/>
<path style="fill:#aec6e0; stroke:none;" d="M71 78L72 79L71 78z"/>
<path style="fill:#7d9ac6; stroke:none;" d="M79.6667 78.3333L80.3333 78.6667L79.6667 78.3333M88 79L88 84L89 84L88 79M108 79L108 83L109 83L108 79M129 81L129 95L130 95L129 81z"/>
<path style="fill:#aec6e0; stroke:none;" d="M128 82L128 103L129 103L128 82M88 84L88 89L89 89L88 84z"/>
<path style="fill:#7d9ac6; stroke:none;" d="M56 85L56 94L57 94L56 85z"/>
<path style="fill:#aec6e0; stroke:none;" d="M88 90L80 106C84.6712 102.552 90.384 96.1723 88 90M57 93L58 98L59 98L57 93z"/>
<path style="fill:#7d9ac6; stroke:none;" d="M107 93L107 115L108 115L107 93M88 95L89 96L88 95M57.3333 96.6667L57.6667 97.3333L57.3333 96.6667M87 97L88 98L87 97M58 98L61 102L58 98z"/>
<path style="fill:#aec6e0; stroke:none;" d="M59 99L60 100L59 99z"/>
<path style="fill:#7d9ac6; stroke:none;" d="M86 99L87 100L86 99z"/>
<path style="fill:#aec6e0; stroke:none;" d="M60 100L61 101L60 100z"/>
<path style="fill:#7d9ac6; stroke:none;" d="M85 100L86 101L85 100z"/>
<path style="fill:#aec6e0; stroke:none;" d="M61 101L68 111L69 111L61 101z"/>
<path style="fill:#7d9ac6; stroke:none;" d="M83 103L84 104L83 103M128 103L128 123L129 123L128 103M62 104L63 105L62 104M82 104L83 105L82 104M63 105L64 106L63 105M81 105L82 106L81 105M64 106L65 107L64 106M80 106L81 107L80 106M65 107L66 108L65 107z"/>
<path style="fill:#aec6e0; stroke:none;" d="M79 107L80 108L79 107z"/>
<path style="fill:#7d9ac6; stroke:none;" d="M66 108L67 109L66 108z"/>
<path style="fill:#aec6e0; stroke:none;" d="M78 108L77 111L78 111L78 108z"/>
<path style="fill:#7d9ac6; stroke:none;" d="M67.3333 109.667L67.6667 110.333L67.3333 109.667M78 109L79 110L78 109M68 111L69 118L70 118L68 111M77 111L77 114L78 114L77 111z"/>
<path style="fill:#aec6e0; stroke:none;" d="M69.3333 112.667L69.6667 113.333L69.3333 112.667M76 112L76 115L77 115L76 112M108 112L109 129L110 129L108 112M127 113L127 125L128 125L127 113z"/>
<path style="fill:#7d9ac6; stroke:none;" d="M76 115L76 119L77 119L76 115z"/>
<path style="fill:#aec6e0; stroke:none;" d="M69 118L69 131L70 131L69 118M76 119L76 133L77 133L76 119z"/>
<path style="fill:#7d9ac6; stroke:none;" d="M77 120L77 144L78 144L77 120M68 122L68 147L69 147L68 122M108 123L108 126L109 126L108 123M127 125L127 142L128 142L127 125M109 129L110 137L111 137L109 129z"/>
<path style="fill:#aec6e0; stroke:none;" d="M110.333 131.667L110.667 132.333L110.333 131.667M22 135L23 142L24 142L22 135M111.333 136.667L111.667 137.333L111.333 136.667M126 136L126 149L127 149L126 136M169 136L167 146L168 146L169 136z"/>
<path style="fill:#7d9ac6; stroke:none;" d="M23.3333 138.667L23.6667 139.333L23.3333 138.667M111 138L112 139L111 138z"/>
<path style="fill:#aec6e0; stroke:none;" d="M112 139L113 143L114 143L112 139z"/>
<path style="fill:#7d9ac6; stroke:none;" d="M168.333 139.667L168.667 140.333L168.333 139.667M112 141L113 142L112 141M24 142L25 146L26 146L24 142M113.333 143.667L113.667 144.333L113.333 143.667M167 143L168 144L167 143z"/>
<path style="fill:#aec6e0; stroke:none;" d="M24 144L25 145L24 144M77 144L78.0278 168.397L88 170L115 170L115 169L78 169L77 144M114.333 144.667L114.667 145.333L114.333 144.667z"/>
<path style="fill:#7d9ac6; stroke:none;" d="M166 145L163 152L164 152L166 145z"/>
<path style="fill:#aec6e0; stroke:none;" d="M25 146L30 154L25 146z"/>
<path style="fill:#7d9ac6; stroke:none;" d="M114 146L115 154L116 154L114 146M26 147L27 148L26 147z"/>
<path style="fill:#aec6e0; stroke:none;" d="M68 147L68 163L69 163L68 147M115.333 147.667L115.667 148.333L115.333 147.667M166 147L167 148L166 147z"/>
<path style="fill:#7d9ac6; stroke:none;" d="M27 149L28 150L27 149M126 149L126 166L127 166L126 149z"/>
<path style="fill:#aec6e0; stroke:none;" d="M165.333 149.667L165.667 150.333L165.333 149.667z"/>
<path style="fill:#7d9ac6; stroke:none;" d="M67 150L67 167L68 167L67 150M28 151L29 152L28 151z"/>
<path style="fill:#aec6e0; stroke:none;" d="M164 151L165 152L164 151z"/>
<path style="fill:#7d9ac6; stroke:none;" d="M29 152L30 153L29 152z"/>
<path style="fill:#aec6e0; stroke:none;" d="M163 152L164 153L163 152z"/>
<path style="fill:#7d9ac6; stroke:none;" d="M162 153L154 162L162 153M30 154L37 161L30 154M78 154L78 169L79 169L78 154z"/>
<path style="fill:#aec6e0; stroke:none;" d="M116 154L116 158L117 158L116 154M162 154L163 155L162 154M30 155L31 156L30 155M161 155L162 156L161 155M31 156L32 157L31 156M160 156L161 157L160 156M32 157L33 158L32 157z"/>
<path style="fill:#7d9ac6; stroke:none;" d="M115 157L115 164L116 164L115 157z"/>
<path style="fill:#aec6e0; stroke:none;" d="M159 157L160 158L159 157M33 158L34 159L33 158M158 158L159 159L158 158M34 159L35 160L34 159M157 159L158 160L157 159M35 160L36 161L35 160M156 160L157 161L156 160M36 161L36 162L44 166L44 165L36 161z"/>
<path style="fill:#7d9ac6; stroke:none;" d="M38 161L39 162L38 161z"/>
<path style="fill:#aec6e0; stroke:none;" d="M155 161L156 162L155 161z"/>
<path style="fill:#7d9ac6; stroke:none;" d="M39 162L40 163L39 162M152 162L151 164L152 162z"/>
<path style="fill:#aec6e0; stroke:none;" d="M153 162L154 163L153 162z"/>
<path style="fill:#7d9ac6; stroke:none;" d="M41 163L42 164L41 163z"/>
<path style="fill:#aec6e0; stroke:none;" d="M152 163L153 164L152 163z"/>
<path style="fill:#7d9ac6; stroke:none;" d="M42 164L43 165L42 164z"/>
<path style="fill:#aec6e0; stroke:none;" d="M115 164L115 168L116 168L115 164z"/>
<path style="fill:#7d9ac6; stroke:none;" d="M149 164L150 165L149 164z"/>
<path style="fill:#aec6e0; stroke:none;" d="M150.667 164.333L151.333 164.667L150.667 164.333z"/>
<path style="fill:#7d9ac6; stroke:none;" d="M44 165L44 166L48 167L48 166L44 165M114 165L114 169L115 169L114 165M144 166L144 167L148 166L144 166z"/>
<path style="fill:#aec6e0; stroke:none;" d="M148.667 165.333L149.333 165.667L148.667 165.333M45 166L46 167L45 166M126 166L126 170L145 168L145 167C138.567 168.327 131.34 171.098 126 166M146.667 166.333L147.333 166.667L146.667 166.333M47.6667 167.333L48.3333 167.667L47.6667 167.333z"/>
<path style="fill:#7d9ac6; stroke:none;" d="M49 167L50 168L49 167z"/>
<path style="fill:#aec6e0; stroke:none;" d="M67 167L68 168L67 167z"/>
<path style="fill:#7d9ac6; stroke:none;" d="M142 167L143 168L142 167z"/>
<path style="fill:#aec6e0; stroke:none;" d="M50 168L50 169L68 170L50 168z"/>
<path style="fill:#7d9ac6; stroke:none;" d="M54 168L54 169L57 169L54 168M67 168L68 169L67 168M136 168L136 169L139 169L136 168z"/>
</svg>
